<svg xmlns="http://www.w3.org/2000/svg" viewBox="0 0 1600 1000">
<defs>
<linearGradient id="sky" x1="0" y1="0" x2="1" y2="1"><stop offset="0" stop-color="#f9e4bd"/><stop offset=".55" stop-color="#c9eced"/><stop offset="1" stop-color="#ffffff"/></linearGradient>
<linearGradient id="sea" x1="0" y1="0" x2="1" y2="1"><stop offset="0" stop-color="#06345b"/><stop offset="1" stop-color="#28c0bd"/></linearGradient>
<filter id="blur"><feGaussianBlur stdDeviation="18"/></filter>
</defs>
<rect width="1600" height="1000" fill="url(#sky)"/>
<circle cx="1270" cy="130" r="120" fill="#f9c96d" opacity=".72"/>
<path d="M0 350 C210 300 340 330 540 285 C790 230 950 300 1160 240 C1360 184 1490 200 1600 170 L1600 1000 L0 1000 Z" fill="url(#sea)"/>
<path d="M170 690 C330 610 430 660 560 615 C720 560 860 615 980 570 C1110 525 1240 545 1435 495 L1600 1000 L0 1000 Z" fill="#e9d38f"/><path d="M260 690 C330 640 405 660 470 635 C560 600 680 630 760 600 C820 580 900 600 940 572" stroke="rgba(255,255,255,.55)" stroke-width="14" fill="none" stroke-linecap="round"/> 

<g opacity=".42"><path d="M930 680 l82 0 l-22 28 l-74 0z" fill="rgba(255,255,255,.88)"/><path d="M970 640 l0 42 l42 0z" fill="rgba(255,255,255,.7)"/><path d="M1090 720 l82 0 l-22 28 l-74 0z" fill="rgba(255,255,255,.88)"/><path d="M1130 680 l0 42 l42 0z" fill="rgba(255,255,255,.7)"/><path d="M1250 680 l82 0 l-22 28 l-74 0z" fill="rgba(255,255,255,.88)"/><path d="M1290 640 l0 42 l42 0z" fill="rgba(255,255,255,.7)"/></g>
<path d="M0 0 H1600 V1000 H0Z" fill="rgba(255,255,255,.1)"/>
<circle cx="180" cy="170" r="180" fill="#f9c96d" opacity=".18" filter="url(#blur)"/>
<circle cx="1340" cy="820" r="220" fill="#fff" opacity=".12" filter="url(#blur)"/>
</svg>